<mxfile host="app.diagrams.net" agent="Mozilla/5.0 (Windows NT 10.0; Win64; x64) AppleWebKit/537.36 (KHTML, like Gecko) Chrome/138.0.0.0 Safari/537.36" version="28.0.7">
  <diagram name="Página-1" id="GRtSqkPFpdcZIhxBoEUD">
    <mxGraphModel dx="1042" dy="527" grid="1" gridSize="10" guides="1" tooltips="1" connect="1" arrows="1" fold="1" page="1" pageScale="1" pageWidth="827" pageHeight="1169" math="0" shadow="0">
      <root>
        <mxCell id="0" />
        <mxCell id="1" parent="0" />
        <mxCell id="kH3_FAEMpBlHl0FE8i5Q-1" value="SOLAR VENDA&lt;div&gt;MÓVEL E RESIDENCIAL&lt;/div&gt;" style="rounded=1;whiteSpace=wrap;html=1;" vertex="1" parent="1">
          <mxGeometry x="80" y="100" width="120" height="60" as="geometry" />
        </mxCell>
        <mxCell id="kH3_FAEMpBlHl0FE8i5Q-2" value="&lt;b&gt;PME JORNADA BILLING CONVERGENTE&lt;/b&gt;" style="text;html=1;align=left;verticalAlign=middle;whiteSpace=wrap;rounded=0;" vertex="1" parent="1">
          <mxGeometry x="242" y="60" width="270" height="30" as="geometry" />
        </mxCell>
        <mxCell id="kH3_FAEMpBlHl0FE8i5Q-3" value="OM" style="rounded=1;whiteSpace=wrap;html=1;verticalAlign=top;" vertex="1" parent="1">
          <mxGeometry x="290" y="130" width="120" height="320" as="geometry" />
        </mxCell>
        <mxCell id="kH3_FAEMpBlHl0FE8i5Q-4" value="NETSMS" style="shape=cylinder3;whiteSpace=wrap;html=1;boundedLbl=1;backgroundOutline=1;size=15;verticalAlign=top;" vertex="1" parent="1">
          <mxGeometry x="760" y="130" width="220" height="360" as="geometry" />
        </mxCell>
        <mxCell id="kH3_FAEMpBlHl0FE8i5Q-5" value="&amp;lt;MS&amp;gt;&lt;br&gt;PROPOSAL/CONFIRMATION" style="rounded=1;whiteSpace=wrap;html=1;fillColor=#fff2cc;strokeColor=#d6b656;" vertex="1" parent="1">
          <mxGeometry x="512" y="80" width="176" height="60" as="geometry" />
        </mxCell>
        <mxCell id="kH3_FAEMpBlHl0FE8i5Q-6" value="" style="endArrow=classic;html=1;rounded=0;entryX=0;entryY=0.5;entryDx=0;entryDy=0;exitX=1;exitY=0.5;exitDx=0;exitDy=0;" edge="1" parent="1" source="kH3_FAEMpBlHl0FE8i5Q-5" target="kH3_FAEMpBlHl0FE8i5Q-11">
          <mxGeometry width="50" height="50" relative="1" as="geometry">
            <mxPoint x="680" y="280" as="sourcePoint" />
            <mxPoint x="730" y="230" as="targetPoint" />
          </mxGeometry>
        </mxCell>
        <mxCell id="kH3_FAEMpBlHl0FE8i5Q-7" value="" style="endArrow=classic;html=1;rounded=0;entryX=0;entryY=0.5;entryDx=0;entryDy=0;exitX=1;exitY=0.25;exitDx=0;exitDy=0;" edge="1" parent="1" source="kH3_FAEMpBlHl0FE8i5Q-22" target="kH3_FAEMpBlHl0FE8i5Q-5">
          <mxGeometry width="50" height="50" relative="1" as="geometry">
            <mxPoint x="520" y="270" as="sourcePoint" />
            <mxPoint x="570" y="220" as="targetPoint" />
            <Array as="points">
              <mxPoint x="460" y="140" />
            </Array>
          </mxGeometry>
        </mxCell>
        <mxCell id="kH3_FAEMpBlHl0FE8i5Q-8" value="" style="endArrow=classic;html=1;rounded=0;entryX=0.5;entryY=0;entryDx=0;entryDy=0;exitX=1;exitY=0.5;exitDx=0;exitDy=0;" edge="1" parent="1" source="kH3_FAEMpBlHl0FE8i5Q-1" target="kH3_FAEMpBlHl0FE8i5Q-22">
          <mxGeometry width="50" height="50" relative="1" as="geometry">
            <mxPoint x="240" y="370" as="sourcePoint" />
            <mxPoint x="290" y="320" as="targetPoint" />
          </mxGeometry>
        </mxCell>
        <mxCell id="kH3_FAEMpBlHl0FE8i5Q-9" value="Prospect,&amp;nbsp;&lt;div&gt;troca titularidade (venda prospect)&lt;/div&gt;" style="edgeLabel;html=1;align=center;verticalAlign=middle;resizable=0;points=[];" vertex="1" connectable="0" parent="kH3_FAEMpBlHl0FE8i5Q-8">
          <mxGeometry x="-0.4156" y="2" relative="1" as="geometry">
            <mxPoint x="46" y="-30" as="offset" />
          </mxGeometry>
        </mxCell>
        <mxCell id="kH3_FAEMpBlHl0FE8i5Q-10" value="CONTRATO" style="swimlane;fontStyle=0;childLayout=stackLayout;horizontal=1;startSize=30;horizontalStack=0;resizeParent=1;resizeParentMax=0;resizeLast=0;collapsible=1;marginBottom=0;whiteSpace=wrap;html=1;" vertex="1" parent="1">
          <mxGeometry x="790" y="200" width="140" height="90" as="geometry" />
        </mxCell>
        <mxCell id="kH3_FAEMpBlHl0FE8i5Q-11" value="NUM CONTRATO" style="text;strokeColor=none;fillColor=none;align=left;verticalAlign=middle;spacingLeft=4;spacingRight=4;overflow=hidden;points=[[0,0.5],[1,0.5]];portConstraint=eastwest;rotatable=0;whiteSpace=wrap;html=1;" vertex="1" parent="kH3_FAEMpBlHl0FE8i5Q-10">
          <mxGeometry y="30" width="140" height="30" as="geometry" />
        </mxCell>
        <mxCell id="kH3_FAEMpBlHl0FE8i5Q-12" value="&lt;font style=&quot;font-size: 11px;&quot;&gt;FLAG BILLING-M = TRUE&lt;/font&gt;" style="text;strokeColor=none;fillColor=none;align=left;verticalAlign=middle;spacingLeft=4;spacingRight=4;overflow=hidden;points=[[0,0.5],[1,0.5]];portConstraint=eastwest;rotatable=0;whiteSpace=wrap;html=1;" vertex="1" parent="kH3_FAEMpBlHl0FE8i5Q-10">
          <mxGeometry y="60" width="140" height="30" as="geometry" />
        </mxCell>
        <mxCell id="kH3_FAEMpBlHl0FE8i5Q-99" value="" style="edgeStyle=orthogonalEdgeStyle;rounded=0;orthogonalLoop=1;jettySize=auto;html=1;" edge="1" parent="1" source="kH3_FAEMpBlHl0FE8i5Q-13" target="kH3_FAEMpBlHl0FE8i5Q-98">
          <mxGeometry relative="1" as="geometry" />
        </mxCell>
        <mxCell id="kH3_FAEMpBlHl0FE8i5Q-13" value="MOBILE" style="rounded=1;whiteSpace=wrap;html=1;" vertex="1" parent="1">
          <mxGeometry x="270" y="585" width="120" height="60" as="geometry" />
        </mxCell>
        <mxCell id="kH3_FAEMpBlHl0FE8i5Q-14" value="" style="endArrow=classic;html=1;rounded=0;entryX=0.5;entryY=0;entryDx=0;entryDy=0;exitX=0.514;exitY=1;exitDx=0;exitDy=0;exitPerimeter=0;" edge="1" parent="1" source="kH3_FAEMpBlHl0FE8i5Q-12" target="kH3_FAEMpBlHl0FE8i5Q-16">
          <mxGeometry width="50" height="50" relative="1" as="geometry">
            <mxPoint x="660" y="410" as="sourcePoint" />
            <mxPoint x="710" y="360" as="targetPoint" />
          </mxGeometry>
        </mxCell>
        <mxCell id="kH3_FAEMpBlHl0FE8i5Q-15" value="" style="endArrow=classic;html=1;rounded=0;entryX=0.5;entryY=0;entryDx=0;entryDy=0;exitX=0.5;exitY=1;exitDx=0;exitDy=0;" edge="1" parent="1" source="kH3_FAEMpBlHl0FE8i5Q-23" target="kH3_FAEMpBlHl0FE8i5Q-13">
          <mxGeometry width="50" height="50" relative="1" as="geometry">
            <mxPoint x="550" y="456.5" as="sourcePoint" />
            <mxPoint x="610" y="440" as="targetPoint" />
          </mxGeometry>
        </mxCell>
        <mxCell id="kH3_FAEMpBlHl0FE8i5Q-16" value="SOLIC" style="swimlane;fontStyle=0;childLayout=stackLayout;horizontal=1;startSize=30;horizontalStack=0;resizeParent=1;resizeParentMax=0;resizeLast=0;collapsible=1;marginBottom=0;whiteSpace=wrap;html=1;" vertex="1" parent="1">
          <mxGeometry x="810" y="320" width="140" height="60" as="geometry" />
        </mxCell>
        <mxCell id="kH3_FAEMpBlHl0FE8i5Q-17" value="OS" style="swimlane;fontStyle=0;childLayout=stackLayout;horizontal=1;startSize=30;horizontalStack=0;resizeParent=1;resizeParentMax=0;resizeLast=0;collapsible=1;marginBottom=0;whiteSpace=wrap;html=1;" vertex="1" parent="1">
          <mxGeometry x="830" y="400" width="140" height="60" as="geometry" />
        </mxCell>
        <mxCell id="kH3_FAEMpBlHl0FE8i5Q-18" value="" style="endArrow=classic;html=1;rounded=0;entryX=0.5;entryY=0;entryDx=0;entryDy=0;exitX=0.5;exitY=1;exitDx=0;exitDy=0;" edge="1" parent="1" source="kH3_FAEMpBlHl0FE8i5Q-16" target="kH3_FAEMpBlHl0FE8i5Q-17">
          <mxGeometry width="50" height="50" relative="1" as="geometry">
            <mxPoint x="920" y="330" as="sourcePoint" />
            <mxPoint x="938" y="360" as="targetPoint" />
          </mxGeometry>
        </mxCell>
        <mxCell id="kH3_FAEMpBlHl0FE8i5Q-19" value="" style="endArrow=classic;html=1;rounded=0;exitX=0;exitY=0.5;exitDx=0;exitDy=0;entryX=1;entryY=0.5;entryDx=0;entryDy=0;" edge="1" parent="1" source="kH3_FAEMpBlHl0FE8i5Q-17" target="kH3_FAEMpBlHl0FE8i5Q-21">
          <mxGeometry width="50" height="50" relative="1" as="geometry">
            <mxPoint x="800" y="550" as="sourcePoint" />
            <mxPoint x="850" y="500" as="targetPoint" />
          </mxGeometry>
        </mxCell>
        <mxCell id="kH3_FAEMpBlHl0FE8i5Q-20" value="OS finalizada/instalação concluida com sucesso" style="text;html=1;align=center;verticalAlign=middle;whiteSpace=wrap;rounded=0;" vertex="1" parent="1">
          <mxGeometry x="516" y="577" width="168" height="40" as="geometry" />
        </mxCell>
        <mxCell id="kH3_FAEMpBlHl0FE8i5Q-21" value="&amp;lt;MS&amp;gt;&lt;br&gt;CALLBACK SOLAR" style="rounded=1;whiteSpace=wrap;html=1;fillColor=#f8cecc;strokeColor=#b85450;" vertex="1" parent="1">
          <mxGeometry x="540" y="520" width="120" height="60" as="geometry" />
        </mxCell>
        <mxCell id="kH3_FAEMpBlHl0FE8i5Q-22" value="PROPOSTA" style="rounded=0;whiteSpace=wrap;html=1;" vertex="1" parent="1">
          <mxGeometry x="305" y="170" width="90" height="40" as="geometry" />
        </mxCell>
        <mxCell id="kH3_FAEMpBlHl0FE8i5Q-23" value="CONTRATO MOBILE" style="rounded=0;whiteSpace=wrap;html=1;" vertex="1" parent="1">
          <mxGeometry x="305" y="390" width="90" height="40" as="geometry" />
        </mxCell>
        <mxCell id="kH3_FAEMpBlHl0FE8i5Q-24" value="" style="endArrow=classic;html=1;rounded=0;entryX=1;entryY=0.5;entryDx=0;entryDy=0;exitX=0;exitY=0.5;exitDx=0;exitDy=0;" edge="1" parent="1" source="kH3_FAEMpBlHl0FE8i5Q-21" target="kH3_FAEMpBlHl0FE8i5Q-23">
          <mxGeometry width="50" height="50" relative="1" as="geometry">
            <mxPoint x="430" y="390" as="sourcePoint" />
            <mxPoint x="480" y="340" as="targetPoint" />
          </mxGeometry>
        </mxCell>
        <mxCell id="kH3_FAEMpBlHl0FE8i5Q-25" value="CONCILIAÇÃO FATURAMENTO NETSMS X ENG X MOBILE" style="rounded=1;whiteSpace=wrap;html=1;" vertex="1" parent="1">
          <mxGeometry x="650" y="660" width="120" height="60" as="geometry" />
        </mxCell>
        <mxCell id="kH3_FAEMpBlHl0FE8i5Q-26" value="" style="endArrow=none;dashed=1;html=1;dashPattern=1 3;strokeWidth=2;rounded=0;exitX=0;exitY=0.5;exitDx=0;exitDy=0;entryX=1;entryY=0.5;entryDx=0;entryDy=0;" edge="1" parent="1" source="kH3_FAEMpBlHl0FE8i5Q-25" target="kH3_FAEMpBlHl0FE8i5Q-69">
          <mxGeometry width="50" height="50" relative="1" as="geometry">
            <mxPoint x="270" y="470" as="sourcePoint" />
            <mxPoint x="320" y="420" as="targetPoint" />
          </mxGeometry>
        </mxCell>
        <mxCell id="kH3_FAEMpBlHl0FE8i5Q-27" value="" style="endArrow=none;dashed=1;html=1;dashPattern=1 3;strokeWidth=2;rounded=0;entryX=0;entryY=1;entryDx=0;entryDy=-15;entryPerimeter=0;exitX=0.5;exitY=0;exitDx=0;exitDy=0;" edge="1" parent="1" source="kH3_FAEMpBlHl0FE8i5Q-25" target="kH3_FAEMpBlHl0FE8i5Q-4">
          <mxGeometry width="50" height="50" relative="1" as="geometry">
            <mxPoint x="580" y="510" as="sourcePoint" />
            <mxPoint x="750" y="450" as="targetPoint" />
          </mxGeometry>
        </mxCell>
        <mxCell id="kH3_FAEMpBlHl0FE8i5Q-28" value="SOLAR ATENDIMENTO&lt;div&gt;MÓVEL E RESIDENCIAL&lt;/div&gt;" style="rounded=1;whiteSpace=wrap;html=1;" vertex="1" parent="1">
          <mxGeometry x="80" y="250" width="120" height="60" as="geometry" />
        </mxCell>
        <mxCell id="kH3_FAEMpBlHl0FE8i5Q-29" value="" style="endArrow=classic;html=1;rounded=0;exitX=0.25;exitY=1;exitDx=0;exitDy=0;entryX=0;entryY=0.25;entryDx=0;entryDy=0;" edge="1" parent="1" source="kH3_FAEMpBlHl0FE8i5Q-1">
          <mxGeometry width="50" height="50" relative="1" as="geometry">
            <mxPoint x="200" y="162.5" as="sourcePoint" />
            <mxPoint x="305" y="197.5" as="targetPoint" />
          </mxGeometry>
        </mxCell>
        <mxCell id="kH3_FAEMpBlHl0FE8i5Q-30" value="Base (mudança pcte,&amp;nbsp;&lt;div&gt;adesão,&amp;nbsp;&lt;span style=&quot;background-color: light-dark(#ffffff, var(--ge-dark-color, #121212)); color: light-dark(rgb(0, 0, 0), rgb(255, 255, 255));&quot;&gt;cancelamento,&amp;nbsp;&lt;/span&gt;&lt;div&gt;suspensão)&lt;/div&gt;&lt;/div&gt;" style="edgeLabel;html=1;align=center;verticalAlign=middle;resizable=0;points=[];" vertex="1" connectable="0" parent="kH3_FAEMpBlHl0FE8i5Q-29">
          <mxGeometry x="0.2265" y="1" relative="1" as="geometry">
            <mxPoint x="-95" y="39" as="offset" />
          </mxGeometry>
        </mxCell>
        <mxCell id="kH3_FAEMpBlHl0FE8i5Q-31" value="" style="endArrow=classic;html=1;rounded=0;exitX=1;exitY=0.25;exitDx=0;exitDy=0;entryX=0;entryY=0;entryDx=0;entryDy=0;" edge="1" parent="1" source="kH3_FAEMpBlHl0FE8i5Q-28" target="kH3_FAEMpBlHl0FE8i5Q-35">
          <mxGeometry width="50" height="50" relative="1" as="geometry">
            <mxPoint x="270" y="310" as="sourcePoint" />
            <mxPoint x="380" y="260" as="targetPoint" />
          </mxGeometry>
        </mxCell>
        <mxCell id="kH3_FAEMpBlHl0FE8i5Q-32" value="Técnico: VT,&amp;nbsp;&lt;div&gt;Abertura OS&lt;/div&gt;" style="edgeLabel;html=1;align=center;verticalAlign=middle;resizable=0;points=[];" vertex="1" connectable="0" parent="kH3_FAEMpBlHl0FE8i5Q-31">
          <mxGeometry x="-0.0872" y="1" relative="1" as="geometry">
            <mxPoint x="2" y="-11" as="offset" />
          </mxGeometry>
        </mxCell>
        <mxCell id="kH3_FAEMpBlHl0FE8i5Q-33" value="" style="endArrow=classic;html=1;rounded=0;entryX=0;entryY=1;entryDx=0;entryDy=0;exitX=1;exitY=1;exitDx=0;exitDy=0;" edge="1" parent="1" source="kH3_FAEMpBlHl0FE8i5Q-28" target="kH3_FAEMpBlHl0FE8i5Q-35">
          <mxGeometry width="50" height="50" relative="1" as="geometry">
            <mxPoint x="250" y="325" as="sourcePoint" />
            <mxPoint x="300" y="275" as="targetPoint" />
          </mxGeometry>
        </mxCell>
        <mxCell id="kH3_FAEMpBlHl0FE8i5Q-34" value="Financeiro: 2a via,&amp;nbsp;&lt;div&gt;forma de pgto,&amp;nbsp;&lt;div&gt;endereço fatura,&amp;nbsp;&lt;/div&gt;&lt;div&gt;faturamento móvel,&amp;nbsp;&lt;/div&gt;&lt;/div&gt;" style="edgeLabel;html=1;align=center;verticalAlign=middle;resizable=0;points=[];" vertex="1" connectable="0" parent="kH3_FAEMpBlHl0FE8i5Q-33">
          <mxGeometry x="-0.6552" y="-2" relative="1" as="geometry">
            <mxPoint x="2" y="36" as="offset" />
          </mxGeometry>
        </mxCell>
        <mxCell id="kH3_FAEMpBlHl0FE8i5Q-35" value="ASSINANTE" style="rounded=0;whiteSpace=wrap;html=1;" vertex="1" parent="1">
          <mxGeometry x="305" y="280" width="90" height="40" as="geometry" />
        </mxCell>
        <mxCell id="kH3_FAEMpBlHl0FE8i5Q-36" value="&amp;lt;MS&amp;gt;&lt;br&gt;ATENDIMENTO" style="rounded=1;whiteSpace=wrap;html=1;fillColor=#fff2cc;strokeColor=#d6b656;" vertex="1" parent="1">
          <mxGeometry x="515" y="365" width="176" height="60" as="geometry" />
        </mxCell>
        <mxCell id="kH3_FAEMpBlHl0FE8i5Q-37" value="" style="endArrow=classic;html=1;rounded=0;entryX=-0.01;entryY=0.013;entryDx=0;entryDy=0;entryPerimeter=0;exitX=1;exitY=0.5;exitDx=0;exitDy=0;" edge="1" parent="1" source="kH3_FAEMpBlHl0FE8i5Q-36" target="kH3_FAEMpBlHl0FE8i5Q-12">
          <mxGeometry width="50" height="50" relative="1" as="geometry">
            <mxPoint x="470" y="360" as="sourcePoint" />
            <mxPoint x="520" y="310" as="targetPoint" />
          </mxGeometry>
        </mxCell>
        <mxCell id="kH3_FAEMpBlHl0FE8i5Q-38" value="" style="endArrow=classic;html=1;rounded=0;entryX=0;entryY=0.5;entryDx=0;entryDy=0;exitX=1;exitY=0.5;exitDx=0;exitDy=0;" edge="1" parent="1" source="kH3_FAEMpBlHl0FE8i5Q-35" target="kH3_FAEMpBlHl0FE8i5Q-36">
          <mxGeometry width="50" height="50" relative="1" as="geometry">
            <mxPoint x="470" y="360" as="sourcePoint" />
            <mxPoint x="520" y="310" as="targetPoint" />
          </mxGeometry>
        </mxCell>
        <mxCell id="kH3_FAEMpBlHl0FE8i5Q-39" value="Abertura&amp;nbsp;&lt;div&gt;OS VT&lt;/div&gt;" style="edgeLabel;html=1;align=center;verticalAlign=middle;resizable=0;points=[];" vertex="1" connectable="0" parent="kH3_FAEMpBlHl0FE8i5Q-38">
          <mxGeometry x="-0.0467" y="3" relative="1" as="geometry">
            <mxPoint as="offset" />
          </mxGeometry>
        </mxCell>
        <mxCell id="kH3_FAEMpBlHl0FE8i5Q-40" value="Após migração, se houver valor pendente de pro rata, última fatura será gerada no residencial para o cliente (em paralelo ao faturamento no Mobile)." style="text;html=1;align=center;verticalAlign=middle;whiteSpace=wrap;rounded=0;" vertex="1" parent="1">
          <mxGeometry x="770" y="653" width="200" height="67" as="geometry" />
        </mxCell>
        <mxCell id="kH3_FAEMpBlHl0FE8i5Q-41" value="" style="endArrow=classic;html=1;rounded=0;exitX=1;exitY=0.25;exitDx=0;exitDy=0;entryX=0.024;entryY=0.76;entryDx=0;entryDy=0;fillColor=#f8cecc;strokeColor=#b85450;strokeWidth=3;entryPerimeter=0;" edge="1" parent="1" source="kH3_FAEMpBlHl0FE8i5Q-21" target="kH3_FAEMpBlHl0FE8i5Q-12">
          <mxGeometry width="50" height="50" relative="1" as="geometry">
            <mxPoint x="650" y="335" as="sourcePoint" />
            <mxPoint x="800" y="285" as="targetPoint" />
          </mxGeometry>
        </mxCell>
        <mxCell id="kH3_FAEMpBlHl0FE8i5Q-42" style="edgeStyle=orthogonalEdgeStyle;rounded=0;orthogonalLoop=1;jettySize=auto;html=1;exitX=0.5;exitY=1;exitDx=0;exitDy=0;" edge="1" parent="1" source="kH3_FAEMpBlHl0FE8i5Q-40" target="kH3_FAEMpBlHl0FE8i5Q-40">
          <mxGeometry relative="1" as="geometry" />
        </mxCell>
        <mxCell id="kH3_FAEMpBlHl0FE8i5Q-43" value="Atendimento Não Solar Minhas, URA, Whatsapp (troca nr telefone fixo, etc)" style="rounded=1;whiteSpace=wrap;html=1;" vertex="1" parent="1">
          <mxGeometry x="1410" y="225" width="120" height="60" as="geometry" />
        </mxCell>
        <mxCell id="kH3_FAEMpBlHl0FE8i5Q-44" value="&amp;lt;MS&amp;gt;&lt;br&gt;ADESÃO" style="rounded=1;whiteSpace=wrap;html=1;fillColor=#fff2cc;strokeColor=#d6b656;" vertex="1" parent="1">
          <mxGeometry x="1027" y="134" width="176" height="60" as="geometry" />
        </mxCell>
        <mxCell id="kH3_FAEMpBlHl0FE8i5Q-45" value="&amp;lt;MS&amp;gt;&lt;br&gt;CALLBACK CPC" style="rounded=1;whiteSpace=wrap;html=1;fillColor=#f8cecc;strokeColor=#b85450;" vertex="1" parent="1">
          <mxGeometry x="1083" y="585" width="120" height="60" as="geometry" />
        </mxCell>
        <mxCell id="kH3_FAEMpBlHl0FE8i5Q-46" value="Venda não Solar (STB,URA, etc)" style="rounded=1;whiteSpace=wrap;html=1;" vertex="1" parent="1">
          <mxGeometry x="1410" y="140" width="120" height="60" as="geometry" />
        </mxCell>
        <mxCell id="kH3_FAEMpBlHl0FE8i5Q-47" value="APIGEE" style="rounded=1;whiteSpace=wrap;html=1;verticalAlign=top;" vertex="1" parent="1">
          <mxGeometry x="1230" y="135" width="120" height="165" as="geometry" />
        </mxCell>
        <mxCell id="kH3_FAEMpBlHl0FE8i5Q-48" value="PROPOSTA" style="rounded=0;whiteSpace=wrap;html=1;" vertex="1" parent="1">
          <mxGeometry x="1245" y="175" width="90" height="40" as="geometry" />
        </mxCell>
        <mxCell id="kH3_FAEMpBlHl0FE8i5Q-49" value="ASSINANTE" style="rounded=0;whiteSpace=wrap;html=1;" vertex="1" parent="1">
          <mxGeometry x="1245" y="235" width="90" height="40" as="geometry" />
        </mxCell>
        <mxCell id="kH3_FAEMpBlHl0FE8i5Q-50" value="" style="endArrow=classic;html=1;rounded=0;exitX=0;exitY=0.5;exitDx=0;exitDy=0;entryX=1;entryY=0.5;entryDx=0;entryDy=0;" edge="1" parent="1" source="kH3_FAEMpBlHl0FE8i5Q-43" target="kH3_FAEMpBlHl0FE8i5Q-49">
          <mxGeometry width="50" height="50" relative="1" as="geometry">
            <mxPoint x="1230" y="290" as="sourcePoint" />
            <mxPoint x="1280" y="240" as="targetPoint" />
          </mxGeometry>
        </mxCell>
        <mxCell id="kH3_FAEMpBlHl0FE8i5Q-51" value="OS VT" style="edgeLabel;html=1;align=center;verticalAlign=middle;resizable=0;points=[];" vertex="1" connectable="0" parent="kH3_FAEMpBlHl0FE8i5Q-50">
          <mxGeometry x="-0.1733" relative="1" as="geometry">
            <mxPoint as="offset" />
          </mxGeometry>
        </mxCell>
        <mxCell id="kH3_FAEMpBlHl0FE8i5Q-52" value="" style="endArrow=classic;html=1;rounded=0;exitX=0;exitY=0.25;exitDx=0;exitDy=0;entryX=1;entryY=0.25;entryDx=0;entryDy=0;" edge="1" parent="1" source="kH3_FAEMpBlHl0FE8i5Q-46" target="kH3_FAEMpBlHl0FE8i5Q-48">
          <mxGeometry width="50" height="50" relative="1" as="geometry">
            <mxPoint x="1445" y="250" as="sourcePoint" />
            <mxPoint x="1370" y="250" as="targetPoint" />
          </mxGeometry>
        </mxCell>
        <mxCell id="kH3_FAEMpBlHl0FE8i5Q-53" value="Adesão" style="edgeLabel;html=1;align=center;verticalAlign=middle;resizable=0;points=[];" vertex="1" connectable="0" parent="kH3_FAEMpBlHl0FE8i5Q-52">
          <mxGeometry x="-0.2368" y="2" relative="1" as="geometry">
            <mxPoint as="offset" />
          </mxGeometry>
        </mxCell>
        <mxCell id="kH3_FAEMpBlHl0FE8i5Q-54" value="" style="endArrow=classic;html=1;rounded=0;entryX=1;entryY=0.5;entryDx=0;entryDy=0;exitX=0;exitY=0.5;exitDx=0;exitDy=0;" edge="1" parent="1" source="kH3_FAEMpBlHl0FE8i5Q-44" target="kH3_FAEMpBlHl0FE8i5Q-11">
          <mxGeometry width="50" height="50" relative="1" as="geometry">
            <mxPoint x="1020" y="290" as="sourcePoint" />
            <mxPoint x="1070" y="240" as="targetPoint" />
          </mxGeometry>
        </mxCell>
        <mxCell id="kH3_FAEMpBlHl0FE8i5Q-55" value="" style="endArrow=classic;html=1;rounded=0;entryX=1;entryY=0.5;entryDx=0;entryDy=0;exitX=0;exitY=0.5;exitDx=0;exitDy=0;" edge="1" parent="1" source="kH3_FAEMpBlHl0FE8i5Q-48" target="kH3_FAEMpBlHl0FE8i5Q-44">
          <mxGeometry width="50" height="50" relative="1" as="geometry">
            <mxPoint x="1150" y="290" as="sourcePoint" />
            <mxPoint x="1200" y="240" as="targetPoint" />
          </mxGeometry>
        </mxCell>
        <mxCell id="kH3_FAEMpBlHl0FE8i5Q-56" value="&amp;lt;MS&amp;gt;&lt;br&gt;ATENDIMENTO" style="rounded=1;whiteSpace=wrap;html=1;fillColor=#fff2cc;strokeColor=#d6b656;" vertex="1" parent="1">
          <mxGeometry x="1027" y="210" width="176" height="60" as="geometry" />
        </mxCell>
        <mxCell id="kH3_FAEMpBlHl0FE8i5Q-57" value="" style="endArrow=classic;html=1;rounded=0;entryX=1;entryY=0.5;entryDx=0;entryDy=0;exitX=0;exitY=0.5;exitDx=0;exitDy=0;" edge="1" parent="1" source="kH3_FAEMpBlHl0FE8i5Q-49" target="kH3_FAEMpBlHl0FE8i5Q-56">
          <mxGeometry width="50" height="50" relative="1" as="geometry">
            <mxPoint x="1292" y="210" as="sourcePoint" />
            <mxPoint x="1250" y="215" as="targetPoint" />
          </mxGeometry>
        </mxCell>
        <mxCell id="kH3_FAEMpBlHl0FE8i5Q-58" value="" style="endArrow=classic;html=1;rounded=0;exitX=1;exitY=0.75;exitDx=0;exitDy=0;entryX=0.25;entryY=0;entryDx=0;entryDy=0;" edge="1" parent="1" source="kH3_FAEMpBlHl0FE8i5Q-17" target="kH3_FAEMpBlHl0FE8i5Q-45">
          <mxGeometry width="50" height="50" relative="1" as="geometry">
            <mxPoint x="940" y="430" as="sourcePoint" />
            <mxPoint x="760" y="420" as="targetPoint" />
          </mxGeometry>
        </mxCell>
        <mxCell id="kH3_FAEMpBlHl0FE8i5Q-59" value="Quando venda/atendimento&amp;nbsp;&lt;div&gt;iniciado fora do Solar, JOBs&lt;/div&gt;" style="edgeLabel;html=1;align=center;verticalAlign=middle;resizable=0;points=[];" vertex="1" connectable="0" parent="kH3_FAEMpBlHl0FE8i5Q-58">
          <mxGeometry x="-0.0827" relative="1" as="geometry">
            <mxPoint x="35" y="12" as="offset" />
          </mxGeometry>
        </mxCell>
        <mxCell id="kH3_FAEMpBlHl0FE8i5Q-60" value="" style="endArrow=classic;html=1;rounded=0;exitX=0;exitY=0.5;exitDx=0;exitDy=0;entryX=1;entryY=0.5;entryDx=0;entryDy=0;" edge="1" parent="1" source="kH3_FAEMpBlHl0FE8i5Q-45" target="kH3_FAEMpBlHl0FE8i5Q-13">
          <mxGeometry width="50" height="50" relative="1" as="geometry">
            <mxPoint x="1090" y="600" as="sourcePoint" />
            <mxPoint x="910" y="590" as="targetPoint" />
          </mxGeometry>
        </mxCell>
        <mxCell id="kH3_FAEMpBlHl0FE8i5Q-61" value="" style="endArrow=classic;html=1;rounded=0;entryX=1.021;entryY=0.8;entryDx=0;entryDy=0;exitX=0;exitY=0.5;exitDx=0;exitDy=0;entryPerimeter=0;" edge="1" parent="1" source="kH3_FAEMpBlHl0FE8i5Q-56" target="kH3_FAEMpBlHl0FE8i5Q-11">
          <mxGeometry width="50" height="50" relative="1" as="geometry">
            <mxPoint x="1137" y="350" as="sourcePoint" />
            <mxPoint x="1040" y="395" as="targetPoint" />
          </mxGeometry>
        </mxCell>
        <mxCell id="kH3_FAEMpBlHl0FE8i5Q-62" style="edgeStyle=orthogonalEdgeStyle;rounded=0;orthogonalLoop=1;jettySize=auto;html=1;entryX=0;entryY=0.5;entryDx=0;entryDy=0;exitX=0;exitY=0;exitDx=0;exitDy=0;" edge="1" parent="1" source="kH3_FAEMpBlHl0FE8i5Q-64" target="kH3_FAEMpBlHl0FE8i5Q-13">
          <mxGeometry relative="1" as="geometry">
            <Array as="points">
              <mxPoint x="20" y="30" />
              <mxPoint x="20" y="615" />
            </Array>
          </mxGeometry>
        </mxCell>
        <mxCell id="kH3_FAEMpBlHl0FE8i5Q-63" style="edgeStyle=orthogonalEdgeStyle;rounded=0;orthogonalLoop=1;jettySize=auto;html=1;entryX=1;entryY=0.5;entryDx=0;entryDy=0;" edge="1" parent="1" source="kH3_FAEMpBlHl0FE8i5Q-64" target="kH3_FAEMpBlHl0FE8i5Q-43">
          <mxGeometry relative="1" as="geometry">
            <Array as="points">
              <mxPoint x="1550" y="40" />
              <mxPoint x="1550" y="255" />
            </Array>
          </mxGeometry>
        </mxCell>
        <mxCell id="kH3_FAEMpBlHl0FE8i5Q-64" value="&amp;lt;MS&amp;gt;&lt;br&gt;ASSETIZAÇÃO" style="rounded=1;whiteSpace=wrap;html=1;fillColor=#fff2cc;strokeColor=#d6b656;" vertex="1" parent="1">
          <mxGeometry x="782" y="30" width="176" height="60" as="geometry" />
        </mxCell>
        <mxCell id="kH3_FAEMpBlHl0FE8i5Q-65" value="" style="endArrow=classic;html=1;rounded=0;entryX=0.5;entryY=1;entryDx=0;entryDy=0;exitX=0.925;exitY=-0.012;exitDx=0;exitDy=0;exitPerimeter=0;" edge="1" parent="1" source="kH3_FAEMpBlHl0FE8i5Q-10" target="kH3_FAEMpBlHl0FE8i5Q-64">
          <mxGeometry width="50" height="50" relative="1" as="geometry">
            <mxPoint x="610" y="210" as="sourcePoint" />
            <mxPoint x="660" y="160" as="targetPoint" />
          </mxGeometry>
        </mxCell>
        <mxCell id="kH3_FAEMpBlHl0FE8i5Q-66" value="" style="endArrow=classic;html=1;rounded=0;entryX=0.409;entryY=-0.031;entryDx=0;entryDy=0;entryPerimeter=0;exitX=0;exitY=0.5;exitDx=0;exitDy=0;" edge="1" parent="1" source="kH3_FAEMpBlHl0FE8i5Q-64" target="kH3_FAEMpBlHl0FE8i5Q-1">
          <mxGeometry width="50" height="50" relative="1" as="geometry">
            <mxPoint x="780" y="60" as="sourcePoint" />
            <mxPoint x="660" y="160" as="targetPoint" />
            <Array as="points">
              <mxPoint x="130" y="60" />
            </Array>
          </mxGeometry>
        </mxCell>
        <mxCell id="kH3_FAEMpBlHl0FE8i5Q-67" value="" style="endArrow=classic;html=1;rounded=0;entryX=0;entryY=0.75;entryDx=0;entryDy=0;exitX=0;exitY=0.25;exitDx=0;exitDy=0;" edge="1" parent="1" source="kH3_FAEMpBlHl0FE8i5Q-64" target="kH3_FAEMpBlHl0FE8i5Q-28">
          <mxGeometry width="50" height="50" relative="1" as="geometry">
            <mxPoint x="723" y="-70" as="sourcePoint" />
            <mxPoint x="70" y="8" as="targetPoint" />
            <Array as="points">
              <mxPoint x="40" y="45" />
              <mxPoint x="40" y="295" />
            </Array>
          </mxGeometry>
        </mxCell>
        <mxCell id="kH3_FAEMpBlHl0FE8i5Q-68" style="edgeStyle=orthogonalEdgeStyle;rounded=0;orthogonalLoop=1;jettySize=auto;html=1;entryX=0.828;entryY=0.076;entryDx=0;entryDy=0;entryPerimeter=0;" edge="1" parent="1" source="kH3_FAEMpBlHl0FE8i5Q-64" target="kH3_FAEMpBlHl0FE8i5Q-46">
          <mxGeometry relative="1" as="geometry" />
        </mxCell>
        <mxCell id="kH3_FAEMpBlHl0FE8i5Q-69" value="FATURAMENTO CONVERGENTE" style="whiteSpace=wrap;html=1;rounded=1;" vertex="1" parent="1">
          <mxGeometry x="460" y="660" width="120" height="60" as="geometry" />
        </mxCell>
        <mxCell id="kH3_FAEMpBlHl0FE8i5Q-70" value="" style="endArrow=classic;html=1;rounded=0;exitX=0.5;exitY=1;exitDx=0;exitDy=0;entryX=0;entryY=0.5;entryDx=0;entryDy=0;" edge="1" parent="1" source="kH3_FAEMpBlHl0FE8i5Q-13" target="kH3_FAEMpBlHl0FE8i5Q-69">
          <mxGeometry width="50" height="50" relative="1" as="geometry">
            <mxPoint x="560" y="590" as="sourcePoint" />
            <mxPoint x="610" y="540" as="targetPoint" />
          </mxGeometry>
        </mxCell>
        <mxCell id="kH3_FAEMpBlHl0FE8i5Q-71" value="JOBS&lt;div&gt;Inclusão de conceito nobill em vários JOBS&lt;/div&gt;" style="rounded=1;whiteSpace=wrap;html=1;fillColor=#fff2cc;strokeColor=#d6b656;" vertex="1" parent="1">
          <mxGeometry x="782" y="540" width="176" height="60" as="geometry" />
        </mxCell>
        <mxCell id="kH3_FAEMpBlHl0FE8i5Q-72" style="edgeStyle=orthogonalEdgeStyle;rounded=0;orthogonalLoop=1;jettySize=auto;html=1;entryX=0.5;entryY=1;entryDx=0;entryDy=0;entryPerimeter=0;" edge="1" parent="1" source="kH3_FAEMpBlHl0FE8i5Q-71" target="kH3_FAEMpBlHl0FE8i5Q-4">
          <mxGeometry relative="1" as="geometry" />
        </mxCell>
        <mxCell id="kH3_FAEMpBlHl0FE8i5Q-73" value="&amp;lt;MS&amp;gt;&lt;br&gt;PROPOSAL SUBSCRIBER" style="rounded=1;whiteSpace=wrap;html=1;fillColor=#fff2cc;strokeColor=#d6b656;" vertex="1" parent="1">
          <mxGeometry x="512" y="150" width="176" height="60" as="geometry" />
        </mxCell>
        <mxCell id="kH3_FAEMpBlHl0FE8i5Q-74" value="" style="endArrow=classic;html=1;rounded=0;entryX=-0.007;entryY=0.767;entryDx=0;entryDy=0;exitX=1;exitY=0.5;exitDx=0;exitDy=0;entryPerimeter=0;" edge="1" parent="1" source="kH3_FAEMpBlHl0FE8i5Q-73" target="kH3_FAEMpBlHl0FE8i5Q-11">
          <mxGeometry width="50" height="50" relative="1" as="geometry">
            <mxPoint x="730" y="190" as="sourcePoint" />
            <mxPoint x="829" y="295" as="targetPoint" />
          </mxGeometry>
        </mxCell>
        <mxCell id="kH3_FAEMpBlHl0FE8i5Q-75" value="" style="endArrow=classic;html=1;rounded=0;exitX=1;exitY=0.5;exitDx=0;exitDy=0;entryX=0;entryY=0.25;entryDx=0;entryDy=0;" edge="1" parent="1" source="kH3_FAEMpBlHl0FE8i5Q-22" target="kH3_FAEMpBlHl0FE8i5Q-73">
          <mxGeometry width="50" height="50" relative="1" as="geometry">
            <mxPoint x="430" y="215" as="sourcePoint" />
            <mxPoint x="480" y="165" as="targetPoint" />
          </mxGeometry>
        </mxCell>
        <mxCell id="kH3_FAEMpBlHl0FE8i5Q-76" value="Prospect" style="edgeLabel;html=1;align=center;verticalAlign=middle;resizable=0;points=[];" vertex="1" connectable="0" parent="1">
          <mxGeometry x="460" y="120" as="geometry">
            <mxPoint x="-4" as="offset" />
          </mxGeometry>
        </mxCell>
        <mxCell id="kH3_FAEMpBlHl0FE8i5Q-77" value="Mudança de&amp;nbsp;&lt;div&gt;pcte,&lt;span style=&quot;background-color: light-dark(#ffffff, var(--ge-dark-color, #121212)); color: light-dark(rgb(0, 0, 0), rgb(255, 255, 255));&quot;&gt;&amp;nbsp;adesão&lt;/span&gt;&lt;/div&gt;" style="edgeLabel;html=1;align=center;verticalAlign=middle;resizable=0;points=[];" vertex="1" connectable="0" parent="1">
          <mxGeometry x="466" y="178" as="geometry">
            <mxPoint x="-6" y="-2" as="offset" />
          </mxGeometry>
        </mxCell>
        <mxCell id="kH3_FAEMpBlHl0FE8i5Q-78" value="&amp;lt;MS&amp;gt;&lt;br&gt;CANCELAMENTO" style="rounded=1;whiteSpace=wrap;html=1;fillColor=#fff2cc;strokeColor=#d6b656;" vertex="1" parent="1">
          <mxGeometry x="512" y="220" width="176" height="60" as="geometry" />
        </mxCell>
        <mxCell id="kH3_FAEMpBlHl0FE8i5Q-79" value="" style="endArrow=classic;html=1;rounded=0;exitX=1;exitY=0.5;exitDx=0;exitDy=0;entryX=0;entryY=0.25;entryDx=0;entryDy=0;" edge="1" parent="1" source="kH3_FAEMpBlHl0FE8i5Q-22" target="kH3_FAEMpBlHl0FE8i5Q-78">
          <mxGeometry width="50" height="50" relative="1" as="geometry">
            <mxPoint x="570" y="340" as="sourcePoint" />
            <mxPoint x="620" y="290" as="targetPoint" />
          </mxGeometry>
        </mxCell>
        <mxCell id="kH3_FAEMpBlHl0FE8i5Q-80" value="Cancelamento" style="edgeLabel;html=1;align=center;verticalAlign=middle;resizable=0;points=[];" vertex="1" connectable="0" parent="1">
          <mxGeometry x="469" y="194" as="geometry">
            <mxPoint x="-8" y="14" as="offset" />
          </mxGeometry>
        </mxCell>
        <mxCell id="kH3_FAEMpBlHl0FE8i5Q-81" value="&amp;lt;MS&amp;gt;&lt;br&gt;SUSPENSÃO TEMPORÁRIA" style="rounded=1;whiteSpace=wrap;html=1;fillColor=#fff2cc;strokeColor=#d6b656;" vertex="1" parent="1">
          <mxGeometry x="512" y="290" width="176" height="60" as="geometry" />
        </mxCell>
        <mxCell id="kH3_FAEMpBlHl0FE8i5Q-82" value="" style="endArrow=classic;html=1;rounded=0;exitX=1;exitY=0.75;exitDx=0;exitDy=0;entryX=0.011;entryY=0.15;entryDx=0;entryDy=0;entryPerimeter=0;" edge="1" parent="1" source="kH3_FAEMpBlHl0FE8i5Q-22" target="kH3_FAEMpBlHl0FE8i5Q-81">
          <mxGeometry width="50" height="50" relative="1" as="geometry">
            <mxPoint x="410" y="190" as="sourcePoint" />
            <mxPoint x="527" y="235" as="targetPoint" />
          </mxGeometry>
        </mxCell>
        <mxCell id="kH3_FAEMpBlHl0FE8i5Q-83" value="Suspensão&amp;nbsp;&lt;div&gt;Temporária&lt;/div&gt;" style="edgeLabel;html=1;align=center;verticalAlign=middle;resizable=0;points=[];" vertex="1" connectable="0" parent="kH3_FAEMpBlHl0FE8i5Q-82">
          <mxGeometry x="0.0773" y="3" relative="1" as="geometry">
            <mxPoint as="offset" />
          </mxGeometry>
        </mxCell>
        <mxCell id="kH3_FAEMpBlHl0FE8i5Q-84" value="" style="endArrow=classic;html=1;rounded=0;entryX=0;entryY=0.5;entryDx=0;entryDy=0;exitX=1;exitY=0.25;exitDx=0;exitDy=0;" edge="1" parent="1" source="kH3_FAEMpBlHl0FE8i5Q-78" target="kH3_FAEMpBlHl0FE8i5Q-11">
          <mxGeometry width="50" height="50" relative="1" as="geometry">
            <mxPoint x="730" y="230" as="sourcePoint" />
            <mxPoint x="831" y="303" as="targetPoint" />
          </mxGeometry>
        </mxCell>
        <mxCell id="kH3_FAEMpBlHl0FE8i5Q-85" value="" style="endArrow=classic;html=1;rounded=0;entryX=0.036;entryY=0.2;entryDx=0;entryDy=0;exitX=1;exitY=0.25;exitDx=0;exitDy=0;entryPerimeter=0;" edge="1" parent="1" source="kH3_FAEMpBlHl0FE8i5Q-81" target="kH3_FAEMpBlHl0FE8i5Q-12">
          <mxGeometry width="50" height="50" relative="1" as="geometry">
            <mxPoint x="710" y="260" as="sourcePoint" />
            <mxPoint x="811" y="333" as="targetPoint" />
          </mxGeometry>
        </mxCell>
        <mxCell id="kH3_FAEMpBlHl0FE8i5Q-86" value="Se contrato fatura no Mobile e OS derivada do Solar: valida baixa da OS, atualiza atributo contrato e depois chama API Callback Solar" style="text;html=1;align=center;verticalAlign=middle;whiteSpace=wrap;rounded=0;" vertex="1" parent="1">
          <mxGeometry x="515" y="440" width="160" height="67" as="geometry" />
        </mxCell>
        <mxCell id="kH3_FAEMpBlHl0FE8i5Q-87" value="NETSales (Bloqueio para contratos faturados no Mobile)" style="rounded=1;whiteSpace=wrap;html=1;fillColor=#fff2cc;strokeColor=#d6b656;" vertex="1" parent="1">
          <mxGeometry x="1027" y="280" width="176" height="60" as="geometry" />
        </mxCell>
        <mxCell id="kH3_FAEMpBlHl0FE8i5Q-88" value="NETSMS (Bloqueio para contratos faturados no Mobile)" style="rounded=1;whiteSpace=wrap;html=1;fillColor=#fff2cc;strokeColor=#d6b656;" vertex="1" parent="1">
          <mxGeometry x="1027" y="360" width="176" height="60" as="geometry" />
        </mxCell>
        <mxCell id="kH3_FAEMpBlHl0FE8i5Q-89" value="" style="endArrow=classic;html=1;rounded=0;entryX=0.993;entryY=0.233;entryDx=0;entryDy=0;exitX=0;exitY=0.25;exitDx=0;exitDy=0;entryPerimeter=0;" edge="1" parent="1" source="kH3_FAEMpBlHl0FE8i5Q-87" target="kH3_FAEMpBlHl0FE8i5Q-12">
          <mxGeometry width="50" height="50" relative="1" as="geometry">
            <mxPoint x="1107" y="325" as="sourcePoint" />
            <mxPoint x="1010" y="320" as="targetPoint" />
          </mxGeometry>
        </mxCell>
        <mxCell id="kH3_FAEMpBlHl0FE8i5Q-90" value="" style="endArrow=classic;html=1;rounded=0;entryX=1;entryY=0.5;entryDx=0;entryDy=0;exitX=0;exitY=0.5;exitDx=0;exitDy=0;" edge="1" parent="1" source="kH3_FAEMpBlHl0FE8i5Q-88" target="kH3_FAEMpBlHl0FE8i5Q-12">
          <mxGeometry width="50" height="50" relative="1" as="geometry">
            <mxPoint x="1128" y="508" as="sourcePoint" />
            <mxPoint x="1030" y="420" as="targetPoint" />
          </mxGeometry>
        </mxCell>
        <mxCell id="kH3_FAEMpBlHl0FE8i5Q-91" value="Se contrato fatura no Mobile e OS &lt;b&gt;não derivada&lt;/b&gt;&amp;nbsp;do Solar: valida baixa da OS, depois chama API Callback Mobile" style="text;html=1;align=center;verticalAlign=middle;whiteSpace=wrap;rounded=0;" vertex="1" parent="1">
          <mxGeometry x="1170" y="520" width="160" height="67" as="geometry" />
        </mxCell>
        <mxCell id="kH3_FAEMpBlHl0FE8i5Q-96" style="edgeStyle=orthogonalEdgeStyle;rounded=0;orthogonalLoop=1;jettySize=auto;html=1;" edge="1" parent="1" source="kH3_FAEMpBlHl0FE8i5Q-92" target="kH3_FAEMpBlHl0FE8i5Q-95">
          <mxGeometry relative="1" as="geometry" />
        </mxCell>
        <mxCell id="kH3_FAEMpBlHl0FE8i5Q-92" value="NOVO JOB Gera arquivos de eventos de TV, avulsos para faturamento residencial na móvel" style="rounded=1;whiteSpace=wrap;html=1;fillColor=#fff2cc;strokeColor=#d6b656;sketch=1;curveFitting=1;jiggle=2;" vertex="1" parent="1">
          <mxGeometry x="1027" y="430" width="176" height="60" as="geometry" />
        </mxCell>
        <mxCell id="kH3_FAEMpBlHl0FE8i5Q-94" value="" style="endArrow=classic;html=1;rounded=0;entryX=1;entryY=0;entryDx=0;entryDy=262.5;entryPerimeter=0;exitX=0;exitY=0.5;exitDx=0;exitDy=0;" edge="1" parent="1" source="kH3_FAEMpBlHl0FE8i5Q-92" target="kH3_FAEMpBlHl0FE8i5Q-4">
          <mxGeometry width="50" height="50" relative="1" as="geometry">
            <mxPoint x="1180" y="410" as="sourcePoint" />
            <mxPoint x="1230" y="360" as="targetPoint" />
          </mxGeometry>
        </mxCell>
        <mxCell id="kH3_FAEMpBlHl0FE8i5Q-97" style="edgeStyle=orthogonalEdgeStyle;rounded=0;orthogonalLoop=1;jettySize=auto;html=1;entryX=0.5;entryY=1;entryDx=0;entryDy=0;" edge="1" parent="1" source="kH3_FAEMpBlHl0FE8i5Q-95" target="kH3_FAEMpBlHl0FE8i5Q-69">
          <mxGeometry relative="1" as="geometry">
            <Array as="points">
              <mxPoint x="1360" y="740" />
              <mxPoint x="520" y="740" />
            </Array>
          </mxGeometry>
        </mxCell>
        <mxCell id="kH3_FAEMpBlHl0FE8i5Q-95" value="CONTROL-M" style="rounded=1;whiteSpace=wrap;html=1;" vertex="1" parent="1">
          <mxGeometry x="1300" y="430" width="120" height="60" as="geometry" />
        </mxCell>
        <mxCell id="kH3_FAEMpBlHl0FE8i5Q-98" value="JOB NETSMS&amp;nbsp;&lt;div&gt;Recebe arquivos de Collection (suspensão, retorno, cancelamento)&lt;/div&gt;" style="whiteSpace=wrap;html=1;rounded=1;fillColor=#fff2cc;strokeColor=#d6b656;" vertex="1" parent="1">
          <mxGeometry x="260" y="680" width="140" height="60" as="geometry" />
        </mxCell>
      </root>
    </mxGraphModel>
  </diagram>
</mxfile>
